<?xml version="1.0" encoding="UTF-8" standalone="no"?>
<svg
   viewBox="0 0 24 24"
   version="1.1"
   id="svg4"
   sodipodi:docname="send1.svg"
   inkscape:version="1.2 (dc2aedaf03, 2022-05-15)"
   xmlns:inkscape="http://www.inkscape.org/namespaces/inkscape"
   xmlns:sodipodi="http://sodipodi.sourceforge.net/DTD/sodipodi-0.dtd"
   xmlns="http://www.w3.org/2000/svg"
   xmlns:svg="http://www.w3.org/2000/svg">
  <defs
     id="defs8">
    <linearGradient
       id="linearGradient1501"
       inkscape:swatch="solid">
      <stop
         style="stop-color:#000000;stop-opacity:1;"
         offset="0"
         id="stop1499" />
    </linearGradient>
    <linearGradient
       id="linearGradient1495"
       inkscape:swatch="solid">
      <stop
         style="stop-color:#000000;stop-opacity:1;"
         offset="0"
         id="stop1493" />
    </linearGradient>
  </defs>
  <sodipodi:namedview
     id="namedview6"
     pagecolor="#ffffff"
     bordercolor="#000000"
     borderopacity="0.25"
     inkscape:showpageshadow="2"
     inkscape:pageopacity="0.0"
     inkscape:pagecheckerboard="0"
     inkscape:deskcolor="#d1d1d1"
     showgrid="false"
     inkscape:zoom="32"
     inkscape:cx="12.03125"
     inkscape:cy="12.1875"
     inkscape:window-width="2560"
     inkscape:window-height="1377"
     inkscape:window-x="-8"
     inkscape:window-y="-8"
     inkscape:window-maximized="1"
     inkscape:current-layer="svg4" />
  <g
     id="g1491"
     style="fill:#ffffff;fill-opacity:1;image-rendering:optimizeSpeed"
     transform="translate(0.15625,-9.34375)">
    <path
       id="path1419"
       style="fill:#ffffff;fill-opacity:1"
       d="m 4.21875,11.435547 -0.2910156,0.09375 c -0.5168743,0.166436 -0.9316249,0.410259 -1.28125,0.751953 -0.4211211,0.411568 -0.7188303,0.971573 -0.8300782,1.560547 -0.048925,0.259023 -0.050014,0.881995 -0.00195,1.101562 0.068512,0.313 0.1656462,0.543693 1.2792969,3.048828 1.0191465,2.29255 1.3074477,2.954948 1.3515625,3.103516 0.044616,0.15025 0.045056,0.373577 0.00195,0.539063 -0.034265,0.131551 -0.214107,0.544043 -1.5566406,3.570312 -0.904318,2.038467 -1.0316668,2.345372 -1.0742188,2.583984 -0.043189,0.242159 -0.042133,0.952584 0.00195,1.166016 0.1272594,0.616103 0.5039575,1.256231 0.9746094,1.65625 0.3940217,0.33489 0.8548296,0.560289 1.3789062,0.675781 0.3742312,0.08247 1.1315337,0.02307 1.4824219,-0.115234 0.3354506,-0.132222 6.7758293,-3.325658 10.9023443,-5.40625 3.821261,-1.926684 3.850545,-1.940919 4.117187,-2.177734 1.137894,-1.010612 1.327799,-2.694141 0.445313,-3.931641 C 20.940385,19.405581 20.577316,19.054636 20.378906,18.939453 19.818891,18.614347 7.5414957,12.463834 6.0703125,11.771484 5.844861,11.665385 5.5772994,11.55114 5.4746094,11.517578 5.2965809,11.459393 5.2616306,11.454952 4.7519531,11.445312 Z m 0.7773438,1.929687 6.9296872,3.46875 c 3.81138,1.906947 7.043959,3.531523 7.183594,3.611328 0.30804,0.176054 0.419467,0.280394 0.525391,0.494141 0.07328,0.147871 0.08194,0.184913 0.08984,0.382813 0.0072,0.180308 5.08e-4,0.24455 -0.03906,0.367187 -0.07133,0.221054 -0.184572,0.371915 -0.376953,0.501953 -0.188523,0.127431 -1.19797,0.638512 -7.115235,3.59961 -4.1562439,2.079854 -6.8635459,3.421487 -7.115234,3.527343 -0.183532,0.07719 -0.4710668,0.0844 -0.6679688,0.01563 C 4.1204754,29.232806 3.9020796,29.030986 3.7949219,28.765625 3.7582289,28.674759 3.742195,28.582459 3.734375,28.400391 L 3.724605,28.15625 3.8456987,27.859375 c 0.066846,-0.163823 0.2913381,-0.680533 0.4980469,-1.148437 0.5841551,-1.322293 1.8013492,-4.08624 1.8613281,-4.22461 l 0.054687,-0.123047 2.8613282,-0.01367 c 1.5738621,-0.0076 3.1944241,-0.02195 3.6015621,-0.03125 l 0.740235,-0.01758 0.136718,-0.07422 c 0.172243,-0.09293 0.36564,-0.292435 0.44336,-0.458984 0.04809,-0.103041 0.06196,-0.169072 0.06836,-0.333984 0.01749,-0.452446 -0.158405,-0.739504 -0.585937,-0.953125 l -0.138672,-0.06836 H 10.15234 c -1.7788848,0 -3.384662,-0.0057 -3.5683595,-0.01367 L 6.25,20.382812 6.2304688,20.326172 C 6.2192877,20.294624 5.6719097,19.05129 5.015625,17.5625 4.3593402,16.07371 3.8005445,14.803568 3.7734375,14.740234 c -0.044076,-0.102977 -0.047592,-0.142047 -0.039063,-0.375 0.013039,-0.356065 0.058891,-0.472536 0.2695312,-0.683593 0.2326271,-0.233089 0.3282755,-0.274169 0.6933594,-0.296875 z" />
  </g>
</svg>
